<svg xmlns="http://www.w3.org/2000/svg" width="360" height="360" viewBox="0 0 360 360"><g id="Layer_2" data-name="Layer 2"><path d="M253.74,63C241.82,49.67,201.28,6.12,180,6.12S118.18,49.67,106.26,63s-50.75,58.7-50.75,82.88c0,30.74,34.55,78.31,48.33,91V345.09a8.79,8.79,0,0,0,17.58,0V233a8.8,8.8,0,0,0-2.93-6.54c-23.22-20.8-45.41-61.08-45.41-80.6,0-9.62,15.9-37.15,46.28-71.17,23.58-26.4,42.77-42.1,53.32-48.15V98.72a29.48,29.48,0,1,0,17.57,0V28.37c11,7.06,28.85,22.24,50.39,46.36,30.38,34,46.28,61.55,46.28,71.17,0,19.52-22.19,59.8-45.41,80.6a8.8,8.8,0,0,0-2.93,6.54v112a8.79,8.79,0,0,0,17.58,0V236.93c13.78-12.72,48.33-60.29,48.33-91C304.49,121.72,265.65,76.35,253.74,63Z"/></g></svg>