<svg xmlns="http://www.w3.org/2000/svg" width="145.28" height="23.86" viewBox="0 0 145.28 23.86"><g id="Layer_2" data-name="Layer 2"><g id="Layer_1-2" data-name="Layer 1"><path d="M1.41,19.37,4.9,1.54l5.69,12.89,5.9-12.89,3.14,17.83H17.06l-1.6-10L10.55,20.14,5.78,9.35,4,19.37Z" transform="translate(-1.41 -1.23)" fill="#fff"/><path d="M26,17.43l-4.7-8.52h2.8l3.2,6,3-6H33L24.65,25.07H21.89Z" transform="translate(-1.41 -1.23)" fill="#fff"/><path d="M37.6,2.79v10a5.43,5.43,0,0,0,.7,3.12,3.73,3.73,0,0,0,5.87,0,5.35,5.35,0,0,0,.7-3.12v-10h2.5V13.47a6,6,0,0,1-1.63,4.31,6.31,6.31,0,0,1-9,0,6,6,0,0,1-1.64-4.31V2.79Z" transform="translate(-1.41 -1.23)" fill="#fff"/><path d="M57,10.69l-2,1.07c-.32-.65-.71-1-1.17-1a.77.77,0,0,0-.57.22.74.74,0,0,0-.24.56c0,.41.47.8,1.4,1.2A8.53,8.53,0,0,1,57,14.29a2.63,2.63,0,0,1,.66,1.88,3.31,3.31,0,0,1-1.11,2.54,3.84,3.84,0,0,1-2.63,1,3.79,3.79,0,0,1-3.72-2.56l2.06-1a4.92,4.92,0,0,0,.65,1,1.53,1.53,0,0,0,1.06.41c.81,0,1.22-.38,1.22-1.12,0-.43-.31-.83-.94-1.21l-.73-.35-.75-.35a4.58,4.58,0,0,1-1.48-1,2.53,2.53,0,0,1-.55-1.68,3,3,0,0,1,.94-2.26A3.3,3.3,0,0,1,54,8.62,3.18,3.18,0,0,1,57,10.69Z" transform="translate(-1.41 -1.23)" fill="#fff"/><path d="M62.23,8.91v6c0,1.73.68,2.6,2.05,2.6s2-.87,2-2.6v-6h2.42V15a6.68,6.68,0,0,1-.31,2.17,3.72,3.72,0,0,1-1,1.47,4.59,4.59,0,0,1-3.12,1.06,4.54,4.54,0,0,1-3.1-1.06,3.81,3.81,0,0,1-1.07-1.47,6,6,0,0,1-.3-2.17V8.91Z" transform="translate(-1.41 -1.23)" fill="#fff"/><path d="M79.51,8.91h2.43V19.37H79.51V18.28a4.66,4.66,0,0,1-6.8-.17,5.88,5.88,0,0,1-1.4-4,5.67,5.67,0,0,1,1.4-3.92,4.54,4.54,0,0,1,3.53-1.57,4.44,4.44,0,0,1,3.27,1.5Zm-5.73,5.2a3.68,3.68,0,0,0,.8,2.45,2.64,2.64,0,0,0,2.09,1,2.77,2.77,0,0,0,2.17-.93,3.58,3.58,0,0,0,.82-2.43,3.55,3.55,0,0,0-.82-2.42,2.72,2.72,0,0,0-2.15-.94,2.69,2.69,0,0,0-2.09.95A3.46,3.46,0,0,0,73.78,14.11Z" transform="translate(-1.41 -1.23)" fill="#fff"/><path d="M87.41,1.23V19.37H85V1.23Z" transform="translate(-1.41 -1.23)" fill="#fff"/><path d="M92.89,1.23V19.37H90.47V1.23Z" transform="translate(-1.41 -1.23)" fill="#fff"/><path d="M99.44,17.43l-4.7-8.52h2.8l3.2,6,3-6h2.73L98.12,25.07H95.36Z" transform="translate(-1.41 -1.23)" fill="#fff"/><path d="M107.17,18.17a1.49,1.49,0,0,1,2.55-1,1.49,1.49,0,0,1-1,2.54,1.47,1.47,0,0,1-1.5-1.5Z" transform="translate(-1.41 -1.23)" fill="#fff"/><path d="M116.55,2.79V17h4.88v2.35h-7.38V2.79Z" transform="translate(-1.41 -1.23)" fill="#fff"/><path d="M122.85,14.07a5.21,5.21,0,0,1,1.62-3.86,5.73,5.73,0,0,1,7.93,0A5.35,5.35,0,0,1,134,14.15a5.32,5.32,0,0,1-1.62,4,5.56,5.56,0,0,1-4,1.57,5.29,5.29,0,0,1-3.94-1.61A5.41,5.41,0,0,1,122.85,14.07Zm2.47,0a3.51,3.51,0,0,0,.84,2.48,2.92,2.92,0,0,0,2.26.93,3,3,0,0,0,2.27-.92,3.47,3.47,0,0,0,.85-2.44,3.44,3.44,0,0,0-.85-2.43,2.94,2.94,0,0,0-2.27-.93,2.9,2.9,0,0,0-2.24.93A3.32,3.32,0,0,0,125.32,14.11Z" transform="translate(-1.41 -1.23)" fill="#fff"/><path d="M146.68,19.13c0,.49,0,.93,0,1.3s-.08.71-.14,1a4.48,4.48,0,0,1-1,2,4.91,4.91,0,0,1-3.9,1.63A5.25,5.25,0,0,1,138.14,24a4.62,4.62,0,0,1-1.61-3.21H139a2.79,2.79,0,0,0,.46,1.19,2.6,2.6,0,0,0,2.19,1c1.77,0,2.66-1.09,2.66-3.26V18.2A4.52,4.52,0,0,1,141,19.67a4.45,4.45,0,0,1-3.5-1.54,5.74,5.74,0,0,1-1.38-3.92,6,6,0,0,1,1.28-3.89A4.46,4.46,0,0,1,141,8.62a4.23,4.23,0,0,1,3.29,1.47V8.91h2.41Zm-2.32-5a3.51,3.51,0,0,0-.81-2.43,2.69,2.69,0,0,0-2.12-.94,2.6,2.6,0,0,0-2.17,1,3.71,3.71,0,0,0-.72,2.36,3.68,3.68,0,0,0,.72,2.35,2.87,2.87,0,0,0,4.36,0A3.58,3.58,0,0,0,144.36,14.16Z" transform="translate(-1.41 -1.23)" fill="#fff"/></g></g></svg>