<svg xmlns="http://www.w3.org/2000/svg" width="32.63" height="22.3" viewBox="0 0 32.63 22.3"><g id="Layer_2" data-name="Layer 2"><g id="Layer_1-2" data-name="Layer 1"><path d="M4.49,2.79V17H9.37v2.35H2V2.79Z" transform="translate(-1.99 -2.79)" fill="#fff"/><path d="M10.79,14.07a5.21,5.21,0,0,1,1.62-3.86,5.43,5.43,0,0,1,3.95-1.59,5.43,5.43,0,0,1,4,1.6A5.32,5.32,0,0,1,22,14.15a5.29,5.29,0,0,1-1.63,4,5.52,5.52,0,0,1-4,1.57,5.27,5.27,0,0,1-3.94-1.61A5.37,5.37,0,0,1,10.79,14.07Zm2.47,0a3.56,3.56,0,0,0,.83,2.48,3,3,0,0,0,2.27.93,3,3,0,0,0,2.27-.92,3.47,3.47,0,0,0,.85-2.44,3.44,3.44,0,0,0-.85-2.43,3,3,0,0,0-2.27-.93,2.9,2.9,0,0,0-2.24.93A3.32,3.32,0,0,0,13.26,14.11Z" transform="translate(-1.99 -2.79)" fill="#fff"/><path d="M34.62,19.13a12.6,12.6,0,0,1,0,1.3,8.17,8.17,0,0,1-.13,1,4.48,4.48,0,0,1-1,2,4.93,4.93,0,0,1-3.9,1.63A5.21,5.21,0,0,1,26.08,24a4.59,4.59,0,0,1-1.61-3.21H26.9a2.79,2.79,0,0,0,.46,1.19,2.6,2.6,0,0,0,2.19,1c1.77,0,2.66-1.09,2.66-3.26V18.2a4.52,4.52,0,0,1-3.32,1.47,4.47,4.47,0,0,1-3.51-1.54A5.78,5.78,0,0,1,24,14.21a6,6,0,0,1,1.28-3.89,4.43,4.43,0,0,1,3.63-1.7,4.23,4.23,0,0,1,3.29,1.47V8.91h2.41Zm-2.32-5a3.51,3.51,0,0,0-.81-2.43,2.7,2.7,0,0,0-2.12-.94,2.6,2.6,0,0,0-2.17,1,3.71,3.71,0,0,0-.72,2.36,3.68,3.68,0,0,0,.72,2.35,2.62,2.62,0,0,0,2.17,1,2.67,2.67,0,0,0,2.19-1A3.63,3.63,0,0,0,32.3,14.16Z" transform="translate(-1.99 -2.79)" fill="#fff"/></g></g></svg>